<svg xmlns="http://www.w3.org/2000/svg" viewBox="0 0 64 64"><g data-name="20-India"><path fill="#f93" d="M63,5V21H1V5A4,4,0,0,1,5,1H59A4,4,0,0,1,63,5Z"/><rect width="62" height="22" x="1" y="21" fill="#eef2fa"/><path fill="#009b3a" d="M63,43V59a4,4,0,0,1-4,4H5a4,4,0,0,1-4-4V43Z"/><path fill="#1f3d8f" d="M32,41a9,9,0,1,1,9-9A9.01,9.01,0,0,1,32,41Zm0-16a7,7,0,1,0,7,7A7.008,7.008,0,0,0,32,25Z"/><path fill="#1f3d8f" d="M37,31H34.816a2.746,2.746,0,0,0-.117-.285l1.008-1.008a1,1,0,0,0-1.414-1.414L33.285,29.3A2.746,2.746,0,0,0,33,29.184V27a1,1,0,0,0-2,0v2.184a2.746,2.746,0,0,0-.285.117l-1.008-1.008a1,1,0,0,0-1.414,1.414L29.3,30.715a2.746,2.746,0,0,0-.117.285H27a1,1,0,0,0,0,2h2.184a2.746,2.746,0,0,0,.117.285l-1.008,1.008a1,1,0,1,0,1.414,1.414L30.715,34.7a2.746,2.746,0,0,0,.285.117V37a1,1,0,0,0,2,0V34.816a2.746,2.746,0,0,0,.285-.117l1.008,1.008a1,1,0,0,0,1.414-1.414L34.7,33.285A2.746,2.746,0,0,0,34.816,33H37a1,1,0,0,0,0-2Z"/><path fill="#ff8000" d="M1 17v4h.37A22.058 22.058 0 0 1 1 17zM63 21V17a22.058 22.058 0 0 1-.37 4z"/><path fill="#cdd2e1" d="M41,39H23A22,22,0,0,1,1.37,21H1V43H63V21h-.37A22,22,0,0,1,41,39Z"/><path fill="#128807" d="M1,59a4,4,0,0,0,4,4H59a4,4,0,0,0,4-4V43H1Z"/><path fill="#006927" d="M59,59H5a4,4,0,0,1-4-4v4a4,4,0,0,0,4,4H59a4,4,0,0,0,4-4V55A4,4,0,0,1,59,59Z"/><path fill="#ffba75" d="M59,1H5A4,4,0,0,0,1,5V9A4,4,0,0,1,5,5H59a4,4,0,0,1,4,4V5A4,4,0,0,0,59,1Z"/><path fill="#172e6b" d="M37.644,39H26.356a8.964,8.964,0,0,0,11.288,0Z"/></g></svg>