<svg xmlns="http://www.w3.org/2000/svg" viewBox="0 0 64 64"><g data-name="07-Italy"><path fill="#e21743" d="M63,5V59a4,4,0,0,1-4,4H43V1H59A4,4,0,0,1,63,5Z"/><rect width="22" height="62" x="21" y="1" fill="#eef2fa"/><path fill="#009e60" d="M21,1V63H5a4,4,0,0,1-4-4V5A4,4,0,0,1,5,1Z"/><path fill="#c7002b" d="M43,38.905V63H59a4,4,0,0,0,4-4V17A22,22,0,0,1,43,38.905Z"/><path fill="#dce1eb" d="M41,39H23c-.675,0-1.341-.035-2-.095V63H43V38.905C42.341,38.965,41.675,39,41,39Z"/><path fill="#008f57" d="M1,17V59a4,4,0,0,0,4,4H21V38.905A22,22,0,0,1,1,17Z"/><rect width="22" height="54" x="21" y="5" fill="none"/><path fill="#007145" d="M5,59a4,4,0,0,1-4-4v4a4,4,0,0,0,4,4H21V59Z"/><rect width="22" height="4" x="21" y="59" fill="#cdd2e1"/><path fill="#b51135" d="M59,63a4,4,0,0,0,4-4V55a4,4,0,0,1-4,4H43v4Z"/><path fill="#ea5172" d="M59,5a4,4,0,0,1,4,4V5a4,4,0,0,0-4-4H43V5Z"/><path fill="#00e088" d="M5,1A4,4,0,0,0,1,5V9A4,4,0,0,1,5,5H21V1Z"/><rect width="22" height="4" x="21" y="1" fill="#f7faff"/></g></svg>