<svg xmlns="http://www.w3.org/2000/svg" viewBox="0 0 64 64"><g data-name="25-Japan"><rect width="62" height="62" x="1" y="1" fill="#eef2fa" rx="4"/><path fill="#dce1eb" d="M23,39A22,22,0,0,1,1,17V59a4,4,0,0,0,4,4H59a4,4,0,0,0,4-4V17A22,22,0,0,1,41,39Z"/><path fill="#cdd2e1" d="M59,59H5a4,4,0,0,1-4-4v4a4,4,0,0,0,4,4H59a4,4,0,0,0,4-4V55A4,4,0,0,1,59,59Z"/><path fill="#f7faff" d="M59,1H5A4,4,0,0,0,1,5V9A4,4,0,0,1,5,5H59a4,4,0,0,1,4,4V5A4,4,0,0,0,59,1Z"/><circle cx="32" cy="32" r="16" fill="#e21743"/><path fill="#ba0028" d="M32,48a16,16,0,0,0,14.737-9.76A22.021,22.021,0,0,1,41,39H23a22.021,22.021,0,0,1-5.737-.76A16,16,0,0,0,32,48Z"/></g></svg>