<svg xmlns="http://www.w3.org/2000/svg" viewBox="0 0 64 64"><g data-name="30-Malaysia"><rect width="62" height="5" x="1" y="54" fill="#e9edf5"/><rect width="62" height="5" x="1" y="44" fill="#e9edf5"/><polygon fill="#e9edf5" points="63 35 63 39 1 39 1 35 11 35 22 35 37 35 63 35"/><rect width="26" height="5" x="37" y="25" fill="#e9edf5"/><rect width="26" height="5" x="37" y="15" fill="#e9edf5"/><rect width="26" height="5" x="37" y="5" fill="#e9edf5"/><path fill="#e21743" d="M1,59H63a4,4,0,0,1-4,4H5A4,4,0,0,1,1,59Z"/><rect width="62" height="5" x="1" y="49" fill="#e21743"/><rect width="62" height="5" x="1" y="39" fill="#e21743"/><rect width="26" height="5" x="37" y="30" fill="#e21743"/><rect width="26" height="5" x="37" y="20" fill="#e21743"/><rect width="26" height="5" x="37" y="10" fill="#e21743"/><path fill="#e21743" d="M63,5H37V1H59A4,4,0,0,1,63,5Z"/><path fill="#3161e3" d="M19,1H5A4,4,0,0,0,1,5V35H37V1Z"/><path fill="#dce1eb" d="M63,20V17a22.161,22.161,0,0,1-.209,3Z"/><rect width="62" height="5" x="1" y="54" fill="#dce1eb"/><rect width="62" height="5" x="1" y="44" fill="#dce1eb"/><path fill="#dce1eb" d="M10.358 35H1v4H23A21.894 21.894 0 0 1 10.358 35zM41 39H63V35H53.642A21.894 21.894 0 0 1 41 39zM58.745 30H63V25H61.493A21.9 21.9 0 0 1 58.745 30z"/><path fill="#b51135" d="M5,63H59a4,4,0,0,0,4-4H1A4,4,0,0,0,5,63Z"/><rect width="62" height="5" x="1" y="49" fill="#b51135"/><polygon fill="#b51135" points="23 39 1 39 1 44 63 44 63 39 41 39 23 39"/><path fill="#b51135" d="M53.642 35H63V30H58.745A22.118 22.118 0 0 1 53.642 35zM61.493 25H63V20h-.209A21.8 21.8 0 0 1 61.493 25z"/><path fill="#2a54c4" d="M6.2,31.2q-.339-.4-.661-.82A21.9,21.9,0,0,1,1,17V35h9.358A22.134,22.134,0,0,1,6.2,31.2Z"/><path fill="#ea5172" d="M59,1H37V5H59a4,4,0,0,1,4,4V5A4,4,0,0,0,59,1Z"/><path fill="#4f7fff" d="M5,5H37V1H5A4,4,0,0,0,1,5V9A4,4,0,0,1,5,5Z"/><path fill="#9da3b5" d="M1 55v4H5A4 4 0 0 1 1 55zM59 59h4V55A4 4 0 0 1 59 59z"/><path fill="#750a26" d="M5,59H1a4,4,0,0,0,4,4H59a4,4,0,0,0,4-4H5Z"/><path fill="#fc0" d="M4,19A11,11,0,0,1,15,8c1,0,4,0,6,2a7.467,7.467,0,0,0-4-1c-4.971,0-9,5.029-9,10s4.029,10,9,10a7.467,7.467,0,0,0,4-1c-2,2-5,2-6,2A11,11,0,0,1,4,19Z"/><polygon fill="#fc0" points="24.96 26 24.167 22.41 21.832 25.298 22.723 21.73 19.328 23.349 21.726 21 17.98 21 21.336 19.485 17.98 18 21.735 18 19.353 14.62 22.739 16.257 21.868 12.685 24.187 15.586 25 12 24.98 12 25.793 15.586 28.112 12.685 27.241 16.257 30.627 14.62 28.245 18 32 18 28.644 19.485 32 21 28.254 21 30.652 23.349 27.257 21.73 28.148 25.298 25.812 22.41 25.02 26 24.96 26"/></g></svg>