<svg viewBox="0 0 32 32" xml:space="preserve" xmlns="http://www.w3.org/2000/svg"><path fill="none" d="M0 0h32v32H0z"></path><path d="M28 22h-3.998v-4H22v4h-4v2h4v4h2.002v-4H28z" fill="#ffffff" class="fill-000000"></path><path d="M23 14c-1.054 0-2.061.19-3 .522V12h-8v2H8v-4h2V2H2v8h4v15.999h6V30h5.349A8.97 8.97 0 0 0 23 32a9 9 0 1 0 0-18zm-8.941 8H12v2H8.001L8 15.998h4V20h2.522a8.932 8.932 0 0 0-.463 2zM23 29.883A6.898 6.898 0 0 1 16.115 23 6.898 6.898 0 0 1 23 16.115 6.898 6.898 0 0 1 29.883 23 6.898 6.898 0 0 1 23 29.883z" fill="#ffffff" class="fill-000000"></path></svg>