<svg viewBox="0 0 512 512" xml:space="preserve" xmlns="http://www.w3.org/2000/svg"><path d="M209.398 185.957c-10.781 3.579-16.642 15.261-13.064 26.043 2.867 8.637 10.931 14.114 19.569 14.114 2.146 0 4.328-.339 6.474-1.051 10.781-3.578 16.642-15.261 13.064-26.042v-.001c-3.579-10.781-15.263-16.641-26.043-13.063zm9.83 29.616c-5.549 1.843-11.561-1.175-13.402-6.724-1.841-5.548 1.175-11.56 6.723-13.401a10.572 10.572 0 0 1 3.331-.54c4.445 0 8.596 2.819 10.071 7.263 1.841 5.549-1.176 11.56-6.723 13.402z" fill="#ffffff" class="fill-000000"></path><path d="M301.762 228.705c-3.587-10.784-15.271-16.644-26.049-13.059-10.775 3.574-16.635 15.256-13.063 26.036.209.631.453 1.247.72 1.852h-20.762l35.889-71.55-8.939-4.483-38.137 76.033h-52.963v10H338.79v-10h-37.725c2.009-4.543 2.363-9.792.697-14.829zm-29.619 9.836c-1.839-5.552 1.175-11.563 6.722-13.403 5.55-1.844 11.562 1.172 13.405 6.716 1.432 4.324-.018 8.951-3.521 11.681h-13.082a10.547 10.547 0 0 1-3.524-4.994zM236.997 369.92l-7.072-7.07 77.36-77.372 7.073 7.071zM244.375 284.074c-11.36 0-20.602 9.242-20.602 20.602s9.242 20.604 20.602 20.604 20.601-9.243 20.601-20.604c.001-11.36-9.241-20.602-20.601-20.602zm0 31.205c-5.846 0-10.602-4.757-10.602-10.604 0-5.846 4.756-10.602 10.602-10.602s10.601 4.756 10.601 10.602c.001 5.847-4.755 10.604-10.601 10.604zM277.363 353.742c0 11.359 9.242 20.602 20.603 20.602s20.602-9.242 20.602-20.602-9.241-20.603-20.602-20.603-20.603 9.243-20.603 20.603zm31.204 0c0 5.846-4.756 10.602-10.602 10.602-5.847 0-10.603-4.756-10.603-10.602 0-5.847 4.756-10.603 10.603-10.603 5.847.001 10.602 4.757 10.602 10.603z" fill="#ffffff" class="fill-000000"></path><path d="M70.064 253.534h44.323v-.001c11.482 0 20.824 12.171 20.824 27.13h10c0-14.959 9.341-27.13 20.824-27.13v-10c-11.482 0-20.824-12.171-20.824-27.13h-10c0 14.959-9.342 27.13-20.824 27.13v.001H60.064v45.847l-25.727-77.507 42.073-13.955-3.148-9.491-51.566 17.104 38.369 115.595v93.728H338.79v-10H70.064V253.534zm70.148-16.895c2.644 4.879 6.212 8.964 10.405 11.895-4.193 2.932-7.761 7.016-10.405 11.895-2.644-4.879-6.212-8.963-10.405-11.895 4.193-2.931 7.761-7.016 10.405-11.895zM370.013 404.855h26.944v10h-26.944zM485.305 297.021h5v-53.487H370.013v10h110.292v33.786c-20.572 2.477-36.565 20.038-36.565 41.265 0 21.234 15.993 38.801 36.565 41.277v34.994h-19.047v-.002c-11.482 0-20.824-12.17-20.824-27.129h-10c0 14.959-9.342 27.129-20.824 27.129v10c11.482 0 20.824 12.172 20.824 27.131h10c0-14.947 9.325-27.108 20.795-27.129h29.076v-54.694h-5c-17.405 0-31.565-14.165-31.565-31.577-.001-17.405 14.159-31.564 31.565-31.564zm-49.871 124.727c-2.645-4.879-6.212-8.963-10.405-11.895 4.193-2.931 7.761-7.015 10.405-11.894 2.645 4.879 6.212 8.963 10.404 11.894-4.192 2.932-7.76 7.016-10.404 11.895zM349.123 378.527h10v11h-10zM349.123 312.527h10v11h-10zM349.123 334.527h10v11h-10zM349.123 400.527h10v11h-10zM349.123 356.527h10v11h-10zM349.123 246.527h10v11h-10zM349.123 268.527h10v11h-10zM349.123 290.527h10v11h-10z" fill="#ffffff" class="fill-000000"></path><path d="M386.695 344.243h10v19.897h-10zM386.695 290.645h10v43.599h-10zM404.609 290.645h10v73.496h-10zM111.457 297.849h88.908v10h-88.908zM89.781 297.849h11.675v10H89.781zM89.781 352.992h77.409v10H89.781zM185.028 325.421h15.337v10h-15.337zM89.781 325.421h87.348v10H89.781zM286.255 117.746l3.15 9.491-152.174 50.49-3.149-9.491zM423.697 82.656l10.642 32.063c-8.394 3.941-15.183 10.538-19.406 18.956-4.979 9.925-5.795 21.193-2.298 31.729 3.498 10.541 10.891 19.088 20.814 24.068 8.418 4.223 17.803 5.453 26.892 3.594l12.596 37.954 9.491-3.149-15.652-47.164-4.746 1.574c-8 2.656-16.557 2.035-24.095-1.747-7.538-3.781-13.152-10.273-15.81-18.279-2.654-8.001-2.035-16.558 1.746-24.095s10.27-13.15 18.27-15.806l4.746-1.575-16.848-50.764-114.168 37.89 3.149 9.491 104.677-34.74zM316.87 145.509l-9.49 3.15-3.466-10.44 9.49-3.15zM335.092 232.163l-3.465-10.44 9.491-3.15 3.465 10.44zM306.476 114.18l3.465 10.44-9.49 3.149-3.465-10.44zM334.195 197.7l3.464 10.44-9.49 3.15-3.464-10.44zM314.326 169.538l-3.464-10.441 9.49-3.15 3.465 10.442zM327.276 176.822l3.465 10.44-9.49 3.15-3.466-10.44zM362.558 198.518l9.492-3.15 6.265 18.885-9.492 3.15zM345.676 147.648l9.492-3.15 13.73 41.38-9.492 3.15z" fill="#ffffff" class="fill-000000"></path><path d="m396.194 208.327-9.492 3.15-23.144-69.756 9.492-3.149z" fill="#ffffff" class="fill-000000"></path></svg>