<svg viewBox="0 0 48 48" xml:space="preserve" xmlns="http://www.w3.org/2000/svg"><g fill="#ffffff" class="fill-241f20"><path d="M23 1h25v6H23zM23 14h25v6H23zM23 28h25v6H23zM23 41h25v6H23zM15.385 2.314a8.89 8.89 0 0 0 .587-.554l-.028.835-.016.762V8h1.696V-.023H16.23l-2.585 2.058.818 1.021.922-.742zM15.748 13.147c-.3.074-.579.179-.833.315-.255.136-.575.369-.962.698l.903 1.07a4.62 4.62 0 0 1 .898-.597c.287-.14.583-.21.887-.21.29 0 .522.077.696.231.174.155.26.389.26.705 0 .211-.04.416-.118.612a2.723 2.723 0 0 1-.388.643c-.179.231-.561.646-1.145 1.244l-1.973 1.995v1.156h5.495v-1.398h-3.424v-.074l1.01-.952c.673-.617 1.145-1.091 1.412-1.424.267-.334.464-.66.591-.977.128-.317.191-.657.191-1.019a2 2 0 0 0-.312-1.108 2.079 2.079 0 0 0-.876-.752c-.376-.179-.81-.269-1.301-.269-.373.001-.71.038-1.011.111zM16.102 33.604c-.348 0-.698-.046-1.053-.141a5.038 5.038 0 0 1-.975-.364v1.371c.639.273 1.372.411 2.2.411.987 0 1.746-.205 2.278-.613s.797-.979.797-1.712c0-.504-.158-.904-.474-1.201-.316-.298-.781-.484-1.396-.561v-.032c.521-.125.926-.353 1.214-.688.288-.333.432-.738.432-1.215 0-.569-.228-1.014-.686-1.334-.457-.32-1.08-.479-1.868-.479-.963 0-1.792.25-2.487.751l.746 1.109c.316-.204.604-.349.863-.432.259-.083.514-.126.764-.126.723 0 1.084.288 1.084.865 0 .375-.136.642-.409.794-.273.155-.705.232-1.295.232h-.589v1.236h.579c.639 0 1.104.074 1.396.225.292.149.438.402.438.761 0 .399-.127.69-.38.871-.255.182-.647.272-1.179.272zM18.755 40.077H17.21l-3.473 5.116v1.164h3.382V48h1.636v-1.643h.954v-1.3h-.954v-4.98zm-1.609 2.661c-.018.427-.027.751-.027.976v1.344h-1.908l1.453-2.195c.187-.281.348-.569.482-.866h.043c-.01.068-.025.315-.043.741z"></path></g><path fill="#ffffff" d="M0 48h4.07l9.022-48H9.021z" class="fill-241f20"></path></svg>