<svg viewBox="0 0 512 512" xmlns="http://www.w3.org/2000/svg"><path d="M217.042 287.818a6.5 6.5 0 0 0-6.5-6.5h-84.304c-47.256 0-85.983-37.92-86.328-84.532a85.18 85.18 0 0 1 85.177-85.826h.352a41.797 41.797 0 0 0 37.8-24.082 95.039 95.039 0 0 1 172.392 0 41.782 41.782 0 0 0 37.78 24.082h.37a84.879 84.879 0 0 1 60.937 144.275 6.5 6.5 0 0 0 9.287 9.098A97.97 97.97 0 0 0 373.782 97.96h-.353a28.751 28.751 0 0 1-26.01-16.563 108.04 108.04 0 0 0-195.97 0 28.757 28.757 0 0 1-26.028 16.563h-.335a98.18 98.18 0 0 0-98.176 98.922c.398 53.726 44.957 97.436 99.328 97.436h84.304a6.5 6.5 0 0 0 6.5-6.5Z" fill="#ffffff" class="fill-000000"></path><path d="M124.196 128.391a67.023 67.023 0 0 0-67.022 67.535 6.5 6.5 0 0 0 6.5 6.452h.048a6.5 6.5 0 0 0 6.452-6.548 54.022 54.022 0 0 1 54.022-54.439h.36a6.5 6.5 0 0 0 0-13ZM375.74 437.874a59.01 59.01 0 0 1 32.397-52.61 85.751 85.751 0 0 0-15.29-14.812l-.12-.089a6.29 6.29 0 0 1-1.935-7.735l12.472-25.916a18.923 18.923 0 0 0-17.06-27.114h-9.994a77.874 77.874 0 0 0 19.234-51.109v-5.464c17.57-5.944 26.474-13.777 26.474-23.336 0-8.376-6.921-15.483-20.57-21.124a14.138 14.138 0 0 1-7.912-8.236l-14.69-40.813a26.14 26.14 0 0 0-38.233-13.445l-14.63 8.948a13.082 13.082 0 0 1-13.725-.008l-15.01-9.207a26.139 26.139 0 0 0-38.036 12.825l-16.162 41.655a13.965 13.965 0 0 1-1.282 2.509c3.851 3.137 10.488 7.14 20.823 9.195a6 6 0 1 1-2.34 11.77c-14.817-2.946-23.888-9.463-28.64-13.983-11.817 5.437-17.82 12.123-17.82 19.915 0 9.767 9.291 17.735 27.633 23.724v5.075a77.875 77.875 0 0 0 19.234 51.11h-9.994a18.923 18.923 0 0 0-17.057 27.121l12.482 25.922a6.277 6.277 0 0 1-2.027 7.81c-.437.313-.837.606-1.17.87a87.027 87.027 0 0 0-33.398 68.257v13.22a6.504 6.504 0 0 0 .088 1.023c2.273 26.94 53.154 42.096 102.928 43.319V391.37a6 6 0 0 1 12 0V497.14c26.569-.655 53.457-5.287 73.093-13.563a58.864 58.864 0 0 1-21.762-45.703ZM317.805 263.32c23.879 0 46.526-2.34 64.64-6.623v1.792a64.095 64.095 0 0 1-.62 8.839 6.491 6.491 0 0 0-1.665.973 69.59 69.59 0 0 1-25.616 12.705 29.493 29.493 0 0 1-18.689-1.348l-10.461-4.34a17.75 17.75 0 0 0-13.497-.066l-10.931 4.406a29.616 29.616 0 0 1-18.832 1.31 69.178 69.178 0 0 1-26.512-13.52 6.534 6.534 0 0 0-.732-.526 64.055 64.055 0 0 1-.565-8.434v-1.513c17.915 4.11 40.115 6.345 63.48 6.345Zm20.48 69.059v.17a16.511 16.511 0 0 1-7.257 13.68l-6.425 4.357a28.904 28.904 0 0 0-6.218 5.683 28.906 28.906 0 0 0-6.212-5.68l-6.431-4.361a16.509 16.509 0 0 1-7.257-13.68v-.114a19.02 19.02 0 0 0-10.055-16.957 64.413 64.413 0 0 1-7.366-4.632l-.006-.004-.008-.006a64.76 64.76 0 0 1-20.334-24.394 85.703 85.703 0 0 0 18.08 7.091 42.616 42.616 0 0 0 27.088-1.842l10.87-4.381a4.816 4.816 0 0 1 3.66.017l10.46 4.34a42.928 42.928 0 0 0 16.414 3.268 41.487 41.487 0 0 0 10.568-1.358 85.031 85.031 0 0 0 18.195-7.131 64.758 64.758 0 0 1-20.332 24.39l-.007.006-.006.004a64.353 64.353 0 0 1-7.353 4.625 19 19 0 0 0-10.068 16.909Z" fill="#ffffff" class="fill-000000"></path><path d="M434.7 389.916a47.959 47.959 0 1 0 47.958 47.958 47.959 47.959 0 0 0-47.959-47.959Zm-.002 75.37a6.506 6.506 0 1 1 6.506-6.505 6.506 6.506 0 0 1-6.506 6.506Zm8.045-44.79-1.544 18.73a6.522 6.522 0 0 1-13 0l-1.544-18.73a8.071 8.071 0 0 1 16.088-1.325 8.72 8.72 0 0 1 0 1.326Z" fill="#ffffff" class="fill-000000"></path></svg>