<svg viewBox="0 0 512 512" xml:space="preserve" xmlns="http://www.w3.org/2000/svg"><path d="M27.855 200.771h10v16.306h-10zM37.855 231.931h-10v256.465h292.916v-10H37.855zM384.066 478.396h-46.929v10h56.929v-232.56h-10zM27.856 185.816h10v-41.42h135.107v156.502h75.991V144.396h35.92a215.57 215.57 0 0 0 7.856 16.32c15.079 28.188 37.411 53.368 64.581 72.815l15.34 10.979 15.43-11.044c25.871-18.518 47.414-42.293 62.3-68.757a214.66 214.66 0 0 0 23.673-64.429l5.106-26.283-24.994-2.892a114.646 114.646 0 0 1-71.206-36.288l-10.309-11.214-10.31 11.214a114.648 114.648 0 0 1-71.206 36.288l-24.993 2.892 5.105 26.283a215.052 215.052 0 0 0 9.604 34.116H27.856v51.42zm264.43-104.777a124.657 124.657 0 0 0 77.419-39.454l2.947-3.206 2.947 3.206a124.645 124.645 0 0 0 77.418 39.454l14.268 1.651-3.046 15.684a204.711 204.711 0 0 1-22.573 61.434c-14.174 25.197-34.715 47.856-59.404 65.527l-9.609 6.878-9.52-6.813c-25.929-18.56-47.225-42.558-61.584-69.4a204.887 204.887 0 0 1-20.483-57.625l-3.047-15.684 14.267-1.652zm-53.331 63.357v146.502h-55.991V144.396h55.991z" fill="#ffffff" class="fill-000000"></path><path d="M372.652 189.593c31.741 0 57.564-25.823 57.564-57.564s-25.823-57.565-57.564-57.565-57.564 25.824-57.564 57.565 25.823 57.564 57.564 57.564zm0-105.13c16.098 0 30.343 8.046 38.953 20.319l-45.746 45.747-19.025-19.026-7.071 7.071 26.097 26.097 50.763-50.763a47.285 47.285 0 0 1 3.595 18.12c0 26.227-21.338 47.564-47.564 47.564-26.228 0-47.564-21.337-47.564-47.564-.002-26.227 21.335-47.565 47.562-47.565zM413.004 227.949l6.047 7.965c5.537-4.204 11.072-9.187 16.451-14.81l-7.227-6.912c-5.014 5.243-10.152 9.871-15.271 13.757zM436.192 205.297l7.689 6.394c25.368-30.51 39.667-66.15 40.263-67.652l-9.295-3.69c-.14.353-14.337 35.701-38.657 64.948zM152.951 159.036H54.035v98.916h98.916v-98.916zm-10 88.916H64.035v-78.916h78.916v78.916zM205.959 458.414h157.372v-58.497H205.959v58.497zm10-48.497h137.372v38.497H215.959v-38.497z" fill="#ffffff" class="fill-000000"></path><path d="M243.955 424.166h12v10h-12zM267.955 424.166h12v10h-12zM315.955 424.166h12v10h-12zM291.955 424.166h12v10h-12zM59.035 272.979h44.458v10H59.035zM59.035 290.999h44.458v10H59.035zM79.088 183.797h48.811v10H79.088zM79.088 203.494h48.811v10H79.088z" fill="#ffffff" class="fill-000000"></path></svg>