<!DOCTYPE svg PUBLIC "-//W3C//DTD SVG 1.1//EN" "http://www.w3.org/Graphics/SVG/1.1/DTD/svg11.dtd">
<!-- Uploaded to: SVG Repo, www.svgrepo.com, Transformed by: SVG Repo Mixer Tools -->
<svg fill="#ffffff" version="1.1" id="Layer_1" xmlns="http://www.w3.org/2000/svg" xmlns:xlink="http://www.w3.org/1999/xlink" viewBox="0 0 512 512" xml:space="preserve" width="800px" height="800px" stroke="#ffffff">
<g id="SVGRepo_bgCarrier" stroke-width="0"/>
<g id="SVGRepo_tracerCarrier" stroke-linecap="round" stroke-linejoin="round"/>
<g id="SVGRepo_iconCarrier"> <g> <g> <path d="M412.903,66.065V0H0v437.677C0,478.659,33.341,512,74.323,512h363.355C478.659,512,512,478.659,512,437.677V66.065 H412.903z M74.323,462.452c-13.66,0-24.774-11.114-24.774-24.774V49.548h313.806v388.129c0,8.684,1.511,17.02,4.261,24.774H74.323 z M462.452,437.677c0,13.66-11.114,24.774-24.774,24.774c-13.661,0-24.774-11.114-24.774-24.774V115.613h49.548V437.677z"/> </g> </g> <g> <g> <rect x="99.097" y="99.097" width="214.71" height="99.097"/> </g> </g> <g> <g> <rect x="99.097" y="231.226" width="214.71" height="49.548"/> </g> </g> <g> <g> <rect x="99.097" y="313.806" width="214.71" height="49.548"/> </g> </g> </g>
</svg>